<svg width="24" height="25" viewBox="0 0 24 25" fill="none" xmlns="http://www.w3.org/2000/svg">
<g clip-path="url(#clip0_12_75)">
<path d="M15.852 9.45097H11.264V0.469971H15.852C18.328 0.469971 20.342 2.48397 20.342 4.95997C20.342 7.43597 18.328 9.45097 15.852 9.45097ZM12.735 7.97997H15.852C17.517 7.97997 18.871 6.62497 18.871 4.96097C18.871 3.29697 17.516 1.94197 15.852 1.94197H12.735V7.97997ZM12.735 9.45097H8.14798C5.67198 9.45097 3.65798 7.43697 3.65798 4.96097C3.65798 2.48497 5.67198 0.469971 8.14798 0.469971H12.736V9.45097H12.735ZM8.14798 1.94097C6.48298 1.94097 5.12898 3.29597 5.12898 4.95997C5.12898 6.62397 6.48298 7.97997 8.14798 7.97997H11.265V1.94097H8.14798ZM12.735 16.96H8.14798C5.67198 16.96 3.65798 14.946 3.65798 12.47C3.65798 9.99397 5.67198 7.97997 8.14798 7.97997H12.736V16.96H12.735ZM8.14798 9.45097C6.48298 9.45097 5.12898 10.806 5.12898 12.47C5.12898 14.134 6.48398 15.489 8.14798 15.489H11.265V9.45097H8.14798ZM8.17198 24.47C5.68298 24.47 3.65698 22.456 3.65698 19.98C3.65698 17.504 5.67098 15.49 8.14698 15.49H12.735V19.931C12.735 22.434 10.688 24.47 8.17198 24.47ZM8.14798 16.96C7.34762 16.961 6.58034 17.2794 6.0144 17.8454C5.44845 18.4113 5.13004 19.1786 5.12898 19.979C5.12898 21.644 6.49398 22.998 8.17298 22.998C9.87798 22.998 11.266 21.622 11.266 19.93V16.96H8.14798ZM15.852 16.96H15.754C13.278 16.96 11.264 14.946 11.264 12.47C11.264 9.99397 13.278 7.97997 15.754 7.97997H15.852C18.328 7.97997 20.342 9.99397 20.342 12.47C20.342 14.946 18.328 16.96 15.852 16.96ZM15.755 9.45097C14.09 9.45097 12.736 10.806 12.736 12.47C12.736 14.134 14.091 15.489 15.755 15.489H15.853C17.518 15.489 18.872 14.134 18.872 12.47C18.872 10.806 17.516 9.45097 15.852 9.45097H15.755Z" fill="#B3B3B3"/>
</g>
<defs>
<clipPath id="clip0_12_75">
<rect width="24" height="24" fill="white" transform="translate(0 0.469971)"/>
</clipPath>
</defs>
</svg>
