<svg width="24" height="25" viewBox="0 0 24 25" fill="none" xmlns="http://www.w3.org/2000/svg">
<g clip-path="url(#clip0_12_77)">
<path d="M0 0.469971H24V24.47H0V0.469971ZM22.034 18.746C21.859 17.651 21.146 16.731 19.031 15.873C18.295 15.528 17.477 15.288 17.234 14.733C17.143 14.403 17.129 14.223 17.188 14.028C17.338 13.382 18.103 13.188 18.703 13.368C19.093 13.488 19.453 13.788 19.679 14.268C20.713 13.592 20.713 13.592 21.434 13.143C21.164 12.723 21.03 12.542 20.848 12.363C20.218 11.658 19.379 11.298 18.014 11.329L17.309 11.418C16.633 11.583 15.989 11.943 15.599 12.423C14.459 13.714 14.788 15.964 16.168 16.894C17.533 17.914 19.529 18.138 19.784 19.099C20.024 20.269 18.914 20.644 17.818 20.509C17.007 20.329 16.558 19.923 16.063 19.173L14.233 20.224C14.443 20.704 14.683 20.913 15.043 21.333C16.783 23.089 21.133 22.999 21.914 20.329C21.943 20.239 22.154 19.624 21.988 18.679L22.034 18.746ZM13.051 11.501H10.803C10.803 13.439 10.794 15.365 10.794 17.306C10.794 18.538 10.857 19.669 10.656 20.017C10.326 20.706 9.476 20.618 9.09 20.497C8.694 20.301 8.493 20.031 8.26 19.642C8.197 19.537 8.15 19.446 8.133 19.446L6.308 20.571C6.613 21.201 7.058 21.743 7.632 22.088C8.487 22.598 9.636 22.763 10.839 22.493C11.622 22.267 12.297 21.802 12.65 21.082C13.16 20.152 13.052 19.012 13.047 17.736C13.059 15.682 13.047 13.627 13.047 11.557L13.051 11.501Z" fill="#B3B3B3"/>
</g>
<defs>
<clipPath id="clip0_12_77">
<rect width="24" height="24" fill="white" transform="translate(0 0.469971)"/>
</clipPath>
</defs>
</svg>
