<svg width="24" height="24" viewBox="0 0 24 24" fill="none" xmlns="http://www.w3.org/2000/svg">
<path d="M4.30056 0C3.5765 0 3 0.583606 3 1.30767V22.6923C3 23.4164 3.5765 24 4.30056 24H20.1774C20.9014 24 21.4779 23.4164 21.4779 22.6923V6.62363H16.695C15.7157 6.62363 14.8614 5.90928 14.8614 4.96062V0H4.30056ZM15.7711 0V4.96062C15.7711 5.35044 16.1422 5.71395 16.695 5.71395H21.4779L15.7711 0ZM8.65709 11.7975C9.05308 11.7975 9.38859 11.8614 9.66627 11.9893C9.94636 12.1173 10.1313 12.2841 10.2206 12.4797C10.3124 12.6729 10.3627 13.0016 10.3627 13.4676V13.695H8.94137V13.2615C8.94137 13.0587 8.92784 12.9332 8.89162 12.8777C8.8554 12.8222 8.79135 12.7924 8.70684 12.7924C8.61508 12.7924 8.54903 12.8313 8.50074 12.9061C8.45486 12.981 8.42967 13.0951 8.42967 13.2473C8.42967 13.4428 8.45472 13.5889 8.50785 13.6879C8.55855 13.7869 8.70474 13.9032 8.94137 14.0432C9.61987 14.4465 10.0443 14.7798 10.2206 15.0382C10.3969 15.2966 10.4836 15.7143 10.4836 16.289C10.4836 16.7067 10.4333 17.0149 10.3343 17.2129C10.2377 17.4109 10.053 17.5752 9.77288 17.7104C9.49278 17.8432 9.16397 17.9094 8.79212 17.9094C8.38405 17.9094 8.03716 17.8294 7.74741 17.6749C7.46007 17.5203 7.2753 17.324 7.18596 17.085C7.09662 16.8459 7.05093 16.5082 7.05093 16.0687V15.6849H8.46521V16.4027C8.4652 16.6225 8.48342 16.7593 8.52206 16.822C8.56311 16.8848 8.63385 16.9144 8.73527 16.9144C8.83668 16.9144 8.91439 16.8804 8.96269 16.8007C9.01339 16.721 9.03376 16.6023 9.03376 16.4454C9.03376 16.1001 8.99289 15.8693 8.89873 15.7631C8.80214 15.6569 8.56002 15.4788 8.18093 15.2301C7.80184 14.979 7.55074 14.8034 7.4276 14.69C7.30445 14.5765 7.2041 14.4142 7.122 14.2138C7.04232 14.0134 7.00118 13.7577 7.00118 13.4463C7.00118 12.9971 7.05826 12.6732 7.17175 12.4655C7.28765 12.2579 7.47725 12.091 7.73319 11.9751C7.98914 11.8568 8.2949 11.7975 8.65709 11.7975ZM12.6298 11.7975C12.9703 11.7975 13.2668 11.8592 13.5324 11.9751C13.8004 12.091 14.0061 12.2371 14.1365 12.4158C14.2693 12.5944 14.3537 12.7769 14.3924 12.9701C14.4334 13.1608 14.4492 13.4509 14.4492 13.83V15.7347C14.4492 16.2562 14.4288 16.6077 14.3781 16.7936C14.3274 16.9795 14.2245 17.1303 14.0797 17.2413C13.9372 17.35 13.7501 17.4321 13.5111 17.4901C13.5183 17.6205 13.5434 17.705 13.5893 17.7388C13.6376 17.7726 13.747 17.7886 13.9233 17.7886H14.4563V18.4993H13.305C13.0273 18.4993 12.8286 18.4717 12.7151 18.4282C12.6016 18.3871 12.5288 18.3279 12.4877 18.2434C12.4491 18.1589 12.4309 18.0083 12.4309 17.7886C12.0856 17.7789 11.7841 17.6899 11.5354 17.5185C11.2867 17.3471 11.1247 17.1279 11.045 16.8647C10.9653 16.5991 10.9242 16.2042 10.9242 15.6778V13.8585C10.9242 13.46 10.9494 13.1564 10.9953 12.9488C11.0436 12.7387 11.1394 12.5424 11.2866 12.3589C11.4339 12.173 11.6234 12.0338 11.8552 11.9396C12.087 11.8454 12.3473 11.7975 12.6298 11.7975ZM15.0249 11.9254H16.5458V16.6159H17.4768V17.7886H15.0249V11.9254ZM12.6938 12.7924C12.6141 12.7924 12.5525 12.822 12.509 12.8848C12.468 12.9452 12.4522 13.1302 12.4522 13.432V16.1682C12.4522 16.5087 12.4611 16.721 12.4877 16.8007C12.5167 16.8804 12.5853 16.9144 12.6867 16.9144C12.7905 16.9144 12.8567 16.8711 12.8857 16.7794C12.9147 16.6876 12.9283 16.4708 12.9283 16.1256V13.432C12.9283 13.1592 12.91 12.981 12.8786 12.9061C12.8496 12.8289 12.788 12.7924 12.6938 12.7924Z" fill="#B3B3B3"/>
</svg>
