<svg width="32" height="32" viewBox="0 0 32 32" fill="none" xmlns="http://www.w3.org/2000/svg">
<path d="M3.2293 20.2936L3.02886 16.1289L10.4897 8.26725H14.4984L7.77259 15.5053L5.7682 17.6434L3.2293 20.2936ZM0 23.857V8.26725H3.58564V23.857H0ZM10.6678 23.857L5.12234 17.0643L7.48307 14.5031L14.8771 23.857H10.6678Z" fill="url(#paint0_linear_23_5)"/>
<path d="M23.4925 24.1242C22.2601 24.1242 21.1169 23.9238 20.0627 23.5229C19.0234 23.122 18.1177 22.5578 17.3457 21.8303C16.5884 21.1028 15.9945 20.2491 15.564 19.2691C15.1482 18.2892 14.9404 17.2202 14.9404 16.0621C14.9404 14.904 15.1482 13.835 15.564 12.8551C15.9945 11.8752 16.5959 11.0214 17.3679 10.2939C18.14 9.5664 19.0457 9.0022 20.085 8.60132C21.1243 8.20044 22.2527 8 23.4702 8C24.7025 8 25.8309 8.20044 26.8554 8.60132C27.8947 9.0022 28.793 9.5664 29.5502 10.2939C30.3223 11.0214 30.9236 11.8752 31.3541 12.8551C31.7847 13.8202 32 14.8892 32 16.0621C32 17.2202 31.7847 18.2966 31.3541 19.2914C30.9236 20.2713 30.3223 21.1251 29.5502 21.8526C28.793 22.5653 27.8947 23.122 26.8554 23.5229C25.8309 23.9238 24.7099 24.1242 23.4925 24.1242ZM23.4702 21.0508C24.168 21.0508 24.8065 20.932 25.3855 20.6945C25.9794 20.4569 26.4991 20.1154 26.9445 19.67C27.3899 19.2246 27.7314 18.6975 27.9689 18.0888C28.2213 17.48 28.3476 16.8045 28.3476 16.0621C28.3476 15.3197 28.2213 14.6442 27.9689 14.0355C27.7314 13.4267 27.3899 12.8996 26.9445 12.4542C26.5139 12.0088 26.0017 11.6673 25.4078 11.4297C24.8139 11.1922 24.168 11.0734 23.4702 11.0734C22.7724 11.0734 22.1265 11.1922 21.5326 11.4297C20.9536 11.6673 20.4413 12.0088 19.9959 12.4542C19.5505 12.8996 19.2016 13.4267 18.9492 14.0355C18.7116 14.6442 18.5928 15.3197 18.5928 16.0621C18.5928 16.7896 18.7116 17.4652 18.9492 18.0888C19.2016 18.6975 19.5431 19.2246 19.9736 19.67C20.4191 20.1154 20.9387 20.4569 21.5326 20.6945C22.1265 20.932 22.7724 21.0508 23.4702 21.0508Z" fill="url(#paint1_linear_23_5)"/>
<defs>
<linearGradient id="paint0_linear_23_5" x1="16" y1="8" x2="16" y2="24.1242" gradientUnits="userSpaceOnUse">
<stop offset="0.0001" stop-color="#8100EA"/>
<stop offset="1" stop-color="#43008A"/>
</linearGradient>
<linearGradient id="paint1_linear_23_5" x1="16" y1="8" x2="16" y2="24.1242" gradientUnits="userSpaceOnUse">
<stop offset="0.0001" stop-color="#8100EA"/>
<stop offset="1" stop-color="#43008A"/>
</linearGradient>
</defs>
</svg>
