<svg width="318" height="48" viewBox="0 0 318 48" fill="none" xmlns="http://www.w3.org/2000/svg">
<path d="M6.96 30.096L6.528 21.12L22.608 4.176H31.248L16.752 19.776L12.432 24.384L6.96 30.096ZM0 37.776V4.176H7.728V37.776H0ZM22.992 37.776L11.04 23.136L16.128 17.616L32.064 37.776H22.992Z" fill="black"/>
<path d="M50.2808 37.776V32.736L49.8008 31.632V22.608C49.8008 21.008 49.3048 19.76 48.3128 18.864C47.3528 17.968 45.8648 17.52 43.8488 17.52C42.4728 17.52 41.1127 17.744 39.7687 18.192C38.4567 18.608 37.3368 19.184 36.4087 19.92L33.7207 14.688C35.1287 13.696 36.8247 12.928 38.8088 12.384C40.7928 11.84 42.8088 11.568 44.8568 11.568C48.7928 11.568 51.8488 12.496 54.0247 14.352C56.2008 16.208 57.2887 19.104 57.2887 23.04V37.776H50.2808ZM42.4087 38.16C40.3927 38.16 38.6647 37.824 37.2248 37.152C35.7848 36.448 34.6808 35.504 33.9128 34.32C33.1447 33.136 32.7607 31.808 32.7607 30.336C32.7607 28.8 33.1287 27.456 33.8647 26.304C34.6328 25.152 35.8327 24.256 37.4647 23.616C39.0967 22.944 41.2248 22.608 43.8488 22.608H50.7127V26.976H44.6647C42.9047 26.976 41.6888 27.264 41.0168 27.84C40.3768 28.416 40.0568 29.136 40.0568 30C40.0568 30.96 40.4248 31.728 41.1608 32.304C41.9288 32.848 42.9688 33.12 44.2808 33.12C45.5288 33.12 46.6488 32.832 47.6408 32.256C48.6328 31.648 49.3528 30.768 49.8008 29.616L50.9528 33.072C50.4088 34.736 49.4167 36 47.9767 36.864C46.5368 37.728 44.6807 38.16 42.4087 38.16Z" fill="black"/>
<path d="M66.861 47.472C65.517 47.472 64.189 47.264 62.877 46.848C61.565 46.432 60.493 45.856 59.661 45.12L62.397 39.792C62.973 40.304 63.629 40.704 64.365 40.992C65.133 41.28 65.885 41.424 66.621 41.424C67.677 41.424 68.509 41.168 69.117 40.656C69.757 40.176 70.333 39.36 70.845 38.208L72.189 35.04L72.765 34.224L82.029 11.952H89.229L77.565 39.36C76.733 41.44 75.773 43.072 74.685 44.256C73.629 45.44 72.445 46.272 71.133 46.752C69.853 47.232 68.429 47.472 66.861 47.472ZM71.277 38.784L59.757 11.952H67.485L76.413 33.552L71.277 38.784Z" fill="black"/>
<path d="M104.061 38.16C101.277 38.16 98.7974 37.6 96.6214 36.48C94.4454 35.328 92.7334 33.744 91.4854 31.728C90.2694 29.712 89.6614 27.424 89.6614 24.864C89.6614 22.272 90.2694 19.984 91.4854 18C92.7334 15.984 94.4454 14.416 96.6214 13.296C98.7974 12.144 101.277 11.568 104.061 11.568C106.781 11.568 109.149 12.144 111.165 13.296C113.181 14.416 114.669 16.032 115.629 18.144L109.821 21.264C109.149 20.048 108.301 19.152 107.277 18.576C106.285 18 105.197 17.712 104.013 17.712C102.733 17.712 101.581 18 100.557 18.576C99.5334 19.152 98.7174 19.968 98.1094 21.024C97.5334 22.08 97.2454 23.36 97.2454 24.864C97.2454 26.368 97.5334 27.648 98.1094 28.704C98.7174 29.76 99.5334 30.576 100.557 31.152C101.581 31.728 102.733 32.016 104.013 32.016C105.197 32.016 106.285 31.744 107.277 31.2C108.301 30.624 109.149 29.712 109.821 28.464L115.629 31.632C114.669 33.712 113.181 35.328 111.165 36.48C109.149 37.6 106.781 38.16 104.061 38.16Z" fill="black"/>
<path d="M150.383 38.352C147.727 38.352 145.262 37.92 142.99 37.056C140.75 36.192 138.799 34.976 137.135 33.408C135.503 31.84 134.222 30 133.294 27.888C132.398 25.776 131.951 23.472 131.951 20.976C131.951 18.48 132.398 16.176 133.294 14.064C134.222 11.952 135.518 10.112 137.182 8.544C138.846 6.976 140.798 5.76 143.038 4.896C145.279 4.032 147.711 3.6 150.335 3.6C152.991 3.6 155.422 4.032 157.63 4.896C159.87 5.76 161.807 6.976 163.439 8.544C165.103 10.112 166.399 11.952 167.327 14.064C168.255 16.144 168.719 18.448 168.719 20.976C168.719 23.472 168.255 25.792 167.327 27.936C166.399 30.048 165.103 31.888 163.439 33.456C161.807 34.992 159.87 36.192 157.63 37.056C155.422 37.92 153.007 38.352 150.383 38.352ZM150.335 31.728C151.839 31.728 153.214 31.472 154.462 30.96C155.742 30.448 156.862 29.712 157.822 28.752C158.783 27.792 159.519 26.656 160.031 25.344C160.575 24.032 160.846 22.576 160.846 20.976C160.846 19.376 160.575 17.92 160.031 16.608C159.519 15.296 158.783 14.16 157.822 13.2C156.895 12.24 155.79 11.504 154.51 10.992C153.23 10.48 151.839 10.224 150.335 10.224C148.831 10.224 147.438 10.48 146.158 10.992C144.91 11.504 143.807 12.24 142.846 13.2C141.886 14.16 141.135 15.296 140.59 16.608C140.079 17.92 139.822 19.376 139.822 20.976C139.822 22.544 140.079 24 140.59 25.344C141.135 26.656 141.871 27.792 142.799 28.752C143.759 29.712 144.878 30.448 146.158 30.96C147.438 31.472 148.831 31.728 150.335 31.728Z" fill="black"/>
<path d="M174.035 37.776V2.16H181.523V37.776H174.035Z" fill="black"/>
<path d="M188.472 37.776V11.952H195.96V37.776H188.472ZM192.216 8.352C190.84 8.352 189.72 7.952 188.856 7.152C187.992 6.352 187.56 5.36 187.56 4.176C187.56 2.992 187.992 2 188.856 1.2C189.72 0.400001 190.84 0 192.216 0C193.592 0 194.712 0.384001 195.576 1.152C196.44 1.888 196.872 2.848 196.872 4.032C196.872 5.28 196.44 6.32 195.576 7.152C194.744 7.952 193.624 8.352 192.216 8.352Z" fill="black"/>
<path d="M209.917 37.776L199.07 11.952H206.798L215.822 34.176H211.982L221.342 11.952H228.542L217.646 37.776H209.917Z" fill="black"/>
<path d="M243.71 38.16C240.766 38.16 238.174 37.584 235.934 36.432C233.726 35.28 232.014 33.712 230.798 31.728C229.582 29.712 228.974 27.424 228.974 24.864C228.974 22.272 229.566 19.984 230.75 18C231.966 15.984 233.614 14.416 235.694 13.296C237.774 12.144 240.126 11.568 242.75 11.568C245.278 11.568 247.55 12.112 249.566 13.2C251.614 14.256 253.23 15.792 254.414 17.808C255.598 19.792 256.19 22.176 256.19 24.96C256.19 25.248 256.174 25.584 256.142 25.968C256.11 26.32 256.078 26.656 256.046 26.976H235.07V22.608H252.11L249.23 23.904C249.23 22.56 248.958 21.392 248.414 20.4C247.87 19.408 247.118 18.64 246.158 18.096C245.198 17.52 244.078 17.232 242.798 17.232C241.518 17.232 240.382 17.52 239.39 18.096C238.43 18.64 237.678 19.424 237.134 20.448C236.59 21.44 236.318 22.624 236.318 24V25.152C236.318 26.56 236.622 27.808 237.23 28.896C237.87 29.952 238.75 30.768 239.87 31.344C241.022 31.888 242.366 32.16 243.902 32.16C245.278 32.16 246.478 31.952 247.502 31.536C248.558 31.12 249.518 30.496 250.382 29.664L254.366 33.984C253.182 35.328 251.694 36.368 249.902 37.104C248.11 37.808 246.046 38.16 243.71 38.16Z" fill="black"/>
<path d="M261.175 37.776V11.952H268.663V37.776H261.175ZM264.919 8.352C263.543 8.352 262.423 7.952 261.559 7.152C260.695 6.352 260.263 5.36 260.263 4.176C260.263 2.992 260.695 2 261.559 1.2C262.423 0.400001 263.543 0 264.919 0C266.295 0 267.415 0.384001 268.279 1.152C269.143 1.888 269.575 2.848 269.575 4.032C269.575 5.28 269.143 6.32 268.279 7.152C267.447 7.952 266.327 8.352 264.919 8.352Z" fill="black"/>
<path d="M275.613 37.776V11.952H282.765V19.248L281.757 17.136C282.525 15.312 283.757 13.936 285.453 13.008C287.149 12.048 289.213 11.568 291.645 11.568V18.48C291.325 18.448 291.037 18.432 290.781 18.432C290.525 18.4 290.253 18.384 289.965 18.384C287.917 18.384 286.253 18.976 284.973 20.16C283.725 21.312 283.101 23.12 283.101 25.584V37.776H275.613Z" fill="black"/>
<path d="M310.25 37.776V32.736L309.77 31.632V22.608C309.77 21.008 309.273 19.76 308.281 18.864C307.322 17.968 305.833 17.52 303.818 17.52C302.441 17.52 301.081 17.744 299.737 18.192C298.425 18.608 297.306 19.184 296.378 19.92L293.69 14.688C295.098 13.696 296.793 12.928 298.777 12.384C300.762 11.84 302.777 11.568 304.826 11.568C308.762 11.568 311.818 12.496 313.993 14.352C316.169 16.208 317.258 19.104 317.258 23.04V37.776H310.25ZM302.378 38.16C300.362 38.16 298.634 37.824 297.194 37.152C295.754 36.448 294.65 35.504 293.882 34.32C293.113 33.136 292.729 31.808 292.729 30.336C292.729 28.8 293.098 27.456 293.833 26.304C294.602 25.152 295.802 24.256 297.434 23.616C299.065 22.944 301.194 22.608 303.818 22.608H310.681V26.976H304.634C302.874 26.976 301.658 27.264 300.986 27.84C300.345 28.416 300.026 29.136 300.026 30C300.026 30.96 300.393 31.728 301.129 32.304C301.897 32.848 302.938 33.12 304.25 33.12C305.497 33.12 306.617 32.832 307.609 32.256C308.602 31.648 309.322 30.768 309.77 29.616L310.922 33.072C310.378 34.736 309.385 36 307.945 36.864C306.505 37.728 304.65 38.16 302.378 38.16Z" fill="black"/>
</svg>
