<svg width="44" height="44" viewBox="0 0 44 44" fill="none" xmlns="http://www.w3.org/2000/svg">
<g clip-path="url(#clip0_6_271)">
<path d="M22 0.544495C9.845 0.544495 0 10.395 0 22.5445C0 32.2667 6.303 40.5112 15.0425 43.417C16.1425 43.6242 16.5458 42.944 16.5458 42.3592C16.5458 41.8367 16.5275 40.4525 16.5183 38.6192C10.3987 39.9465 9.108 35.6675 9.108 35.6675C8.107 33.1283 6.6605 32.45 6.6605 32.45C4.66767 31.086 6.8145 31.1135 6.8145 31.1135C9.02367 31.2675 10.1842 33.3795 10.1842 33.3795C12.1458 36.7437 15.334 35.772 16.5917 35.2092C16.7897 33.7865 17.3562 32.8167 17.985 32.2667C13.0992 31.7167 7.964 29.8247 7.964 21.395C7.964 18.9933 8.8165 17.0317 10.2282 15.4917C9.98067 14.9362 9.23817 12.6995 10.4207 9.66899C10.4207 9.66899 12.2632 9.07866 16.4707 11.924C18.2307 11.4345 20.1007 11.1925 21.9707 11.1815C23.8407 11.1925 25.7107 11.4345 27.4707 11.924C31.6507 9.07866 33.4932 9.66899 33.4932 9.66899C34.6757 12.6995 33.9332 14.9362 33.7132 15.4917C35.1157 17.0317 35.9682 18.9933 35.9682 21.395C35.9682 29.8467 30.8257 31.7075 25.9307 32.2483C26.7007 32.9083 27.4157 34.2577 27.4157 36.3183C27.4157 39.2627 27.3882 41.6277 27.3882 42.3427C27.3882 42.9202 27.7732 43.6077 28.9007 43.3877C37.7025 40.502 44 32.252 44 22.5445C44 10.395 34.1495 0.544495 22 0.544495Z" fill="url(#paint0_linear_6_271)"/>
</g>
<defs>
<linearGradient id="paint0_linear_6_271" x1="22" y1="0.544495" x2="22" y2="43.455" gradientUnits="userSpaceOnUse">
<stop offset="0.0001" stop-color="#8100EA"/>
<stop offset="1" stop-color="#43008A"/>
</linearGradient>
<clipPath id="clip0_6_271">
<rect width="44" height="44" fill="white"/>
</clipPath>
</defs>
</svg>
