<svg width="44" height="44" viewBox="0 0 44 44" fill="none" xmlns="http://www.w3.org/2000/svg">
<g clip-path="url(#clip0_6_269)">
<path d="M37.4862 37.4953H30.9705V27.2855C30.9705 24.8508 30.921 21.7177 27.5752 21.7177C24.178 21.7177 23.6592 24.3668 23.6592 27.1058V37.4953H17.1435V16.5H23.4025V19.3618H23.4868C24.3613 17.7118 26.488 15.9702 29.6652 15.9702C36.267 15.9702 37.488 20.3152 37.488 25.971L37.4862 37.4953ZM9.7845 13.6272C7.68717 13.6272 6.00233 11.9295 6.00233 9.84133C6.00233 7.755 7.689 6.05917 9.7845 6.05917C11.8745 6.05917 13.5685 7.755 13.5685 9.84133C13.5685 11.9295 11.8727 13.6272 9.7845 13.6272ZM13.0515 37.4953H6.5175V16.5H13.0515V37.4953ZM40.7458 0H3.24683C1.452 0 0 1.419 0 3.16983V40.8302C0 42.5828 1.452 44 3.24683 44H40.7403C42.5333 44 44 42.5828 44 40.8302V3.16983C44 1.419 42.5333 0 40.7403 0H40.7458Z" fill="url(#paint0_linear_6_269)"/>
</g>
<defs>
<linearGradient id="paint0_linear_6_269" x1="22" y1="0" x2="22" y2="44" gradientUnits="userSpaceOnUse">
<stop offset="0.0001" stop-color="#8100EA"/>
<stop offset="1" stop-color="#43008A"/>
</linearGradient>
<clipPath id="clip0_6_269">
<rect width="44" height="44" fill="white"/>
</clipPath>
</defs>
</svg>
