<svg width="20" height="21" viewBox="0 0 20 21" fill="none" xmlns="http://www.w3.org/2000/svg">
<path d="M13.8333 11.9669C13.6666 11.8835 12.5833 11.3835 12.4166 11.3002C12.25 11.2169 12.0833 11.2169 11.9166 11.3835C11.75 11.5502 11.4166 12.0502 11.25 12.2169C11.1666 12.3835 11 12.3835 10.8333 12.3002C10.25 12.0502 9.66663 11.7169 9.16663 11.3002C8.74996 10.8835 8.33329 10.3835 7.99996 9.88354C7.91663 9.71688 7.99996 9.55021 8.08329 9.46688C8.16663 9.38354 8.24996 9.21688 8.41663 9.13354C8.49996 9.05021 8.58329 8.88354 8.58329 8.80021C8.66663 8.71688 8.66663 8.55021 8.58329 8.46688C8.49996 8.38355 8.08329 7.38355 7.91663 6.96688C7.83329 6.38355 7.66663 6.38354 7.49996 6.38354C7.41663 6.38354 7.24996 6.38354 7.08329 6.38354C6.91663 6.38354 6.66663 6.55021 6.58329 6.63354C6.08329 7.13355 5.83329 7.71688 5.83329 8.38354C5.91663 9.13355 6.16663 9.88354 6.66663 10.5502C7.58329 11.8835 8.74996 12.9669 10.1666 13.6335C10.5833 13.8002 10.9166 13.9669 11.3333 14.0502C11.75 14.2169 12.1666 14.2169 12.6666 14.1335C13.25 14.0502 13.75 13.6335 14.0833 13.1335C14.25 12.8002 14.25 12.4669 14.1666 12.1335C14.1666 12.1335 14 12.0502 13.8333 11.9669ZM15.9166 4.38355C12.6666 1.13354 7.41663 1.13354 4.16663 4.38355C1.49996 7.05021 0.999959 11.1335 2.83329 14.3835L1.66663 18.6335L6.08329 17.4669C7.33329 18.1335 8.66663 18.4669 9.99996 18.4669C14.5833 18.4669 18.25 14.8002 18.25 10.2169C18.3333 8.05021 17.4166 5.96688 15.9166 4.38355ZM13.6666 16.0502C12.5833 16.7169 11.3333 17.1335 9.99996 17.1335C8.74996 17.1335 7.58329 16.8002 6.49996 16.2169L6.24996 16.0502L3.66663 16.7169L4.33329 14.2169L4.16663 13.9669C2.16663 10.6335 3.16663 6.46688 6.41663 4.38355C9.66663 2.30021 13.8333 3.38355 15.8333 6.55021C17.8333 9.80021 16.9166 14.0502 13.6666 16.0502Z" fill="url(#paint0_linear_11_40)"/>
<defs>
<linearGradient id="paint0_linear_11_40" x1="9.96091" y1="1.94604" x2="9.96091" y2="18.6335" gradientUnits="userSpaceOnUse">
<stop offset="0.0001" stop-color="#8100EA"/>
<stop offset="1" stop-color="#43008A"/>
</linearGradient>
</defs>
</svg>
